<svg width="194" height="39" viewBox="0 0 194 39" fill="none" xmlns="http://www.w3.org/2000/svg">
<path d="M52.9815 35.1364V12.6364H56.7741V15.3423H56.9979C57.1967 14.9446 57.4773 14.522 57.8395 14.0746C58.2017 13.62 58.6918 13.233 59.3097 12.9134C59.9276 12.5866 60.7159 12.4233 61.6747 12.4233C62.9389 12.4233 64.0788 12.7464 65.0945 13.3928C66.1172 14.032 66.9268 14.9801 67.5234 16.2372C68.1271 17.4872 68.429 19.0213 68.429 20.8395C68.429 22.6364 68.1342 24.1634 67.5447 25.4205C66.9553 26.6776 66.1527 27.6364 65.1371 28.2969C64.1214 28.9574 62.9709 29.2876 61.6854 29.2876C60.7479 29.2876 59.9702 29.1314 59.3523 28.8189C58.7344 28.5064 58.2372 28.13 57.8608 27.6896C57.4915 27.2422 57.2038 26.8196 56.9979 26.4219H56.8381V35.1364H52.9815ZM56.7635 20.8182C56.7635 21.8764 56.9126 22.8033 57.2109 23.5987C57.5163 24.3942 57.9531 25.0156 58.5213 25.4631C59.0966 25.9034 59.7926 26.1236 60.6094 26.1236C61.4616 26.1236 62.1754 25.8963 62.7507 25.4418C63.326 24.9801 63.7592 24.3516 64.0504 23.5561C64.3487 22.7536 64.4979 21.8409 64.4979 20.8182C64.4979 19.8026 64.3523 18.9006 64.0611 18.1122C63.7699 17.3239 63.3366 16.706 62.7614 16.2585C62.1861 15.8111 61.4688 15.5874 60.6094 15.5874C59.7855 15.5874 59.0859 15.804 58.5107 16.2372C57.9354 16.6705 57.4986 17.2777 57.2003 18.0589C56.9091 18.8402 56.7635 19.7599 56.7635 20.8182ZM76.4403 29.3303C75.4034 29.3303 74.4695 29.1456 73.6385 28.7763C72.8146 28.3999 72.1612 27.8459 71.6783 27.1143C71.2024 26.3828 70.9645 25.4808 70.9645 24.4084C70.9645 23.4851 71.1349 22.7216 71.4759 22.1179C71.8168 21.5142 72.282 21.0312 72.8714 20.669C73.4609 20.3068 74.125 20.0334 74.8636 19.8487C75.6094 19.657 76.38 19.5185 77.1754 19.4332C78.1342 19.3338 78.9119 19.245 79.5085 19.1669C80.1051 19.0817 80.5384 18.9538 80.8082 18.7834C81.0852 18.6058 81.2237 18.3324 81.2237 17.9631V17.8991C81.2237 17.0966 80.9858 16.4751 80.5099 16.0348C80.0341 15.5945 79.3487 15.3743 78.4538 15.3743C77.5092 15.3743 76.7599 15.5803 76.206 15.9922C75.6591 16.4041 75.2898 16.8906 75.098 17.4517L71.4972 16.9403C71.7813 15.946 72.25 15.1151 72.9034 14.4474C73.5568 13.7727 74.3558 13.2685 75.3004 12.9347C76.245 12.5938 77.2891 12.4233 78.4325 12.4233C79.2209 12.4233 80.0057 12.5156 80.7869 12.7003C81.5682 12.8849 82.282 13.1903 82.9283 13.6165C83.5746 14.0355 84.093 14.6072 84.4837 15.3317C84.8814 16.0561 85.0803 16.9616 85.0803 18.0483V29H81.3729V26.7521H81.245C81.0107 27.2067 80.6804 27.6328 80.2543 28.0305C79.8352 28.4212 79.3061 28.7372 78.6669 28.9787C78.0348 29.2131 77.2926 29.3303 76.4403 29.3303ZM77.4418 26.4964C78.2159 26.4964 78.8871 26.3437 79.4553 26.0384C80.0234 25.7259 80.4602 25.3139 80.7656 24.8026C81.0781 24.2912 81.2344 23.7337 81.2344 23.13V21.2017C81.1136 21.3011 80.9077 21.3935 80.6165 21.4787C80.3324 21.5639 80.0128 21.6385 79.6577 21.7024C79.3026 21.7663 78.951 21.8232 78.603 21.8729C78.255 21.9226 77.9531 21.9652 77.6974 22.0007C77.1222 22.0788 76.6072 22.2067 76.1527 22.3842C75.6982 22.5618 75.3395 22.8104 75.0767 23.13C74.8139 23.4425 74.6825 23.8473 74.6825 24.3445C74.6825 25.0547 74.9418 25.5909 75.4602 25.9531C75.9787 26.3153 76.6392 26.4964 77.4418 26.4964ZM88.9581 35.1364V12.6364H92.7507V15.3423H92.9744C93.1733 14.9446 93.4538 14.522 93.8161 14.0746C94.1783 13.62 94.6683 13.233 95.2862 12.9134C95.9041 12.5866 96.6925 12.4233 97.6513 12.4233C98.9155 12.4233 100.055 12.7464 101.071 13.3928C102.094 14.032 102.903 14.9801 103.5 16.2372C104.104 17.4872 104.406 19.0213 104.406 20.8395C104.406 22.6364 104.111 24.1634 103.521 25.4205C102.932 26.6776 102.129 27.6364 101.114 28.2969C100.098 28.9574 98.9474 29.2876 97.6619 29.2876C96.7244 29.2876 95.9467 29.1314 95.3288 28.8189C94.7109 28.5064 94.2138 28.13 93.8374 27.6896C93.468 27.2422 93.1804 26.8196 92.9744 26.4219H92.8146V35.1364H88.9581ZM92.7401 20.8182C92.7401 21.8764 92.8892 22.8033 93.1875 23.5987C93.4929 24.3942 93.9297 25.0156 94.4979 25.4631C95.0732 25.9034 95.7692 26.1236 96.5859 26.1236C97.4382 26.1236 98.152 25.8963 98.7273 25.4418C99.3026 24.9801 99.7358 24.3516 100.027 23.5561C100.325 22.7536 100.474 21.8409 100.474 20.8182C100.474 19.8026 100.329 18.9006 100.038 18.1122C99.7464 17.3239 99.3132 16.706 98.7379 16.2585C98.1626 15.8111 97.4453 15.5874 96.5859 15.5874C95.7621 15.5874 95.0625 15.804 94.4872 16.2372C93.9119 16.6705 93.4751 17.2777 93.1768 18.0589C92.8857 18.8402 92.7401 19.7599 92.7401 20.8182ZM107.708 29V12.6364H111.565V29H107.708ZM109.647 10.3139C109.036 10.3139 108.511 10.1115 108.07 9.70668C107.63 9.29474 107.41 8.80114 107.41 8.22585C107.41 7.64347 107.63 7.14986 108.07 6.74503C108.511 6.3331 109.036 6.12713 109.647 6.12713C110.265 6.12713 110.79 6.3331 111.224 6.74503C111.664 7.14986 111.884 7.64347 111.884 8.22585C111.884 8.80114 111.664 9.29474 111.224 9.70668C110.79 10.1115 110.265 10.3139 109.647 10.3139ZM115.53 29V12.6364H119.27V15.3636H119.44C119.738 14.419 120.25 13.6911 120.974 13.1797C121.706 12.6612 122.54 12.402 123.478 12.402C123.691 12.402 123.929 12.4126 124.192 12.4339C124.461 12.4482 124.685 12.473 124.863 12.5085V16.0561C124.699 15.9993 124.44 15.9496 124.085 15.907C123.737 15.8572 123.4 15.8324 123.073 15.8324C122.37 15.8324 121.738 15.9851 121.177 16.2905C120.623 16.5888 120.186 17.0043 119.866 17.5369C119.547 18.0696 119.387 18.6839 119.387 19.38V29H115.53ZM137.855 22.1179V12.6364H141.711V29H137.972V26.0916H137.801C137.432 27.0078 136.825 27.7571 135.98 28.3395C135.142 28.9219 134.108 29.2131 132.879 29.2131C131.807 29.2131 130.859 28.9751 130.035 28.4993C129.218 28.0163 128.579 27.3168 128.117 26.4006C127.656 25.4773 127.425 24.3622 127.425 23.0554V12.6364H131.281V22.4588C131.281 23.4957 131.566 24.3196 132.134 24.9304C132.702 25.5412 133.448 25.8466 134.371 25.8466C134.939 25.8466 135.49 25.7081 136.022 25.4311C136.555 25.1541 136.992 24.7422 137.333 24.1953C137.681 23.6413 137.855 22.9489 137.855 22.1179ZM131.399 10.2287C130.838 10.2287 130.351 10.0298 129.939 9.6321C129.534 9.23437 129.332 8.76562 129.332 8.22585C129.332 7.65767 129.534 7.18182 129.939 6.7983C130.351 6.40767 130.838 6.21236 131.399 6.21236C131.974 6.21236 132.457 6.40767 132.847 6.7983C133.245 7.18182 133.444 7.65767 133.444 8.22585C133.444 8.76562 133.245 9.23437 132.847 9.6321C132.457 10.0298 131.974 10.2287 131.399 10.2287ZM137.791 10.2287C137.23 10.2287 136.743 10.0298 136.331 9.6321C135.926 9.23437 135.724 8.76562 135.724 8.22585C135.724 7.65767 135.926 7.18182 136.331 6.7983C136.743 6.40767 137.23 6.21236 137.791 6.21236C138.366 6.21236 138.849 6.40767 139.24 6.7983C139.637 7.18182 139.836 7.65767 139.836 8.22585C139.836 8.76562 139.637 9.23437 139.24 9.6321C138.849 10.0298 138.366 10.2287 137.791 10.2287ZM158.61 16.9616L155.094 17.3452C154.995 16.9901 154.821 16.6562 154.572 16.3438C154.331 16.0312 154.004 15.7791 153.592 15.5874C153.18 15.3956 152.676 15.2997 152.08 15.2997C151.277 15.2997 150.602 15.4737 150.055 15.8217C149.516 16.1697 149.249 16.6207 149.256 17.1747C149.249 17.6506 149.423 18.0376 149.778 18.3359C150.141 18.6342 150.737 18.8793 151.568 19.071L154.359 19.6676C155.908 20.0014 157.058 20.5305 157.811 21.255C158.571 21.9794 158.955 22.9276 158.962 24.0994C158.955 25.1293 158.653 26.0384 158.056 26.8267C157.467 27.608 156.646 28.2187 155.595 28.6591C154.544 29.0994 153.337 29.3196 151.973 29.3196C149.97 29.3196 148.358 28.9006 147.136 28.0625C145.915 27.2173 145.187 26.0419 144.952 24.5362L148.713 24.174C148.884 24.9126 149.246 25.4702 149.8 25.8466C150.354 26.223 151.075 26.4112 151.962 26.4112C152.879 26.4112 153.614 26.223 154.168 25.8466C154.729 25.4702 155.009 25.005 155.009 24.451C155.009 23.9822 154.828 23.5952 154.466 23.2898C154.111 22.9844 153.557 22.75 152.804 22.5866L150.013 22.0007C148.443 21.674 147.282 21.1236 146.529 20.3494C145.776 19.5682 145.403 18.581 145.411 17.3878C145.403 16.3793 145.677 15.5057 146.231 14.767C146.792 14.0213 147.57 13.446 148.564 13.0412C149.565 12.6293 150.719 12.4233 152.026 12.4233C153.944 12.4233 155.453 12.8317 156.554 13.6484C157.662 14.4652 158.347 15.5696 158.61 16.9616ZM164.517 29.2344C163.871 29.2344 163.317 29.0071 162.855 28.5526C162.394 28.098 162.167 27.544 162.174 26.8906C162.167 26.2514 162.394 25.7045 162.855 25.25C163.317 24.7955 163.871 24.5682 164.517 24.5682C165.142 24.5682 165.686 24.7955 166.147 25.25C166.616 25.7045 166.854 26.2514 166.861 26.8906C166.854 27.3239 166.74 27.718 166.52 28.0732C166.307 28.4283 166.023 28.7124 165.668 28.9254C165.32 29.1314 164.936 29.2344 164.517 29.2344ZM175.552 29.3303C174.515 29.3303 173.581 29.1456 172.75 28.7763C171.926 28.3999 171.273 27.8459 170.79 27.1143C170.314 26.3828 170.076 25.4808 170.076 24.4084C170.076 23.4851 170.246 22.7216 170.587 22.1179C170.928 21.5142 171.393 21.0312 171.983 20.669C172.572 20.3068 173.236 20.0334 173.975 19.8487C174.721 19.657 175.491 19.5185 176.287 19.4332C177.246 19.3338 178.023 19.245 178.62 19.1669C179.216 19.0817 179.65 18.9538 179.92 18.7834C180.197 18.6058 180.335 18.3324 180.335 17.9631V17.8991C180.335 17.0966 180.097 16.4751 179.621 16.0348C179.145 15.5945 178.46 15.3743 177.565 15.3743C176.621 15.3743 175.871 15.5803 175.317 15.9922C174.77 16.4041 174.401 16.8906 174.209 17.4517L170.608 16.9403C170.893 15.946 171.361 15.1151 172.015 14.4474C172.668 13.7727 173.467 13.2685 174.412 12.9347C175.356 12.5938 176.4 12.4233 177.544 12.4233C178.332 12.4233 179.117 12.5156 179.898 12.7003C180.68 12.8849 181.393 13.1903 182.04 13.6165C182.686 14.0355 183.204 14.6072 183.595 15.3317C183.993 16.0561 184.192 16.9616 184.192 18.0483V29H180.484V26.7521H180.356C180.122 27.2067 179.792 27.6328 179.366 28.0305C178.947 28.4212 178.417 28.7372 177.778 28.9787C177.146 29.2131 176.404 29.3303 175.552 29.3303ZM176.553 26.4964C177.327 26.4964 177.998 26.3437 178.567 26.0384C179.135 25.7259 179.572 25.3139 179.877 24.8026C180.189 24.2912 180.346 23.7337 180.346 23.13V21.2017C180.225 21.3011 180.019 21.3935 179.728 21.4787C179.444 21.5639 179.124 21.6385 178.769 21.7024C178.414 21.7663 178.062 21.8232 177.714 21.8729C177.366 21.9226 177.064 21.9652 176.809 22.0007C176.233 22.0788 175.719 22.2067 175.264 22.3842C174.809 22.5618 174.451 22.8104 174.188 23.13C173.925 23.4425 173.794 23.8473 173.794 24.3445C173.794 25.0547 174.053 25.5909 174.572 25.9531C175.09 26.3153 175.751 26.4964 176.553 26.4964ZM188.069 29V12.6364H191.926V29H188.069ZM190.008 10.3139C189.398 10.3139 188.872 10.1115 188.432 9.70668C187.991 9.29474 187.771 8.80114 187.771 8.22585C187.771 7.64347 187.991 7.14986 188.432 6.74503C188.872 6.3331 189.398 6.12713 190.008 6.12713C190.626 6.12713 191.152 6.3331 191.585 6.74503C192.025 7.14986 192.246 7.64347 192.246 8.22585C192.246 8.80114 192.025 9.29474 191.585 9.70668C191.152 10.1115 190.626 10.3139 190.008 10.3139Z" fill="black"/>
<path d="M24 2.60274L3.00016 14.727C1.66679 15.4968 1.66684 17.4214 3.00025 18.1912L6.741 20.3506L9.5 18.7577C10.1188 18.4005 10.8812 18.4005 11.5 18.7577L23.5 25.6859C24.1188 26.0432 24.8812 26.0432 25.5 25.6859L42.7406 15.7321C44.074 14.9623 44.074 13.0377 42.7406 12.2679L26 2.60274C25.3812 2.24548 24.6188 2.24548 24 2.60274Z" fill="#0A0A0A"/>
<path d="M24 30.0056L14 24.232C12.6667 23.4622 11 24.4245 11 25.9641V29.4282C11 30.1427 11.3812 30.803 12 31.1603L24 38.0885C24.6188 38.4457 25.3812 38.4457 26 38.0885L38 31.1603C38.6188 30.803 39 30.1427 39 29.4282V25.9641C39 24.4245 37.3333 23.4623 36 24.2321L26 30.0056C25.3812 30.3628 24.6188 30.3628 24 30.0056Z" fill="#0A0A0A"/>
<path d="M24 10.5363L21 12.2684C19.6667 13.0382 19.6667 14.9627 21 15.7325L24 17.4645C24.6188 17.8218 25.3812 17.8218 26 17.4645L29 15.7325C30.3333 14.9627 30.3333 13.0382 29 12.2684L26 10.5363C25.3812 10.1791 24.6188 10.1791 24 10.5363Z" fill="white"/>
</svg>
