<svg width="1200" height="760" viewBox="0 0 1200 760" fill="none" xmlns="http://www.w3.org/2000/svg">
  <rect width="1200" height="760" fill="#F5F8FC"/>
  <rect x="34" y="34" width="1132" height="692" rx="18" fill="white" stroke="#D9E3EE"/>
  <rect x="34" y="34" width="230" height="692" rx="18" fill="#FBFCFE"/>
  <path d="M264 34v692" stroke="#E4ECF5"/>
  <rect x="58" y="58" width="34" height="34" rx="10" fill="white" stroke="#1F2A36" stroke-width="2"/>
  <text x="105" y="81" fill="#0B1D33" font-family="Inter,Segoe UI,sans-serif" font-size="17" font-weight="800">Papirus AI</text>
  <g font-family="Inter,Segoe UI,sans-serif" font-size="14" font-weight="650">
    <text x="62" y="134" fill="#60708A">Konsol</text>
    <text x="62" y="180" fill="#60708A">Cevap Anahtarı Yükle</text>
    <text x="62" y="229" fill="#60708A">Kaynak Yükle</text>
    <rect x="52" y="252" width="180" height="38" rx="10" fill="#E8FFF8" stroke="#B7EEE1"/>
    <text x="62" y="276" fill="#047868">Sınav Kağıdı Oku</text>
    <text x="62" y="322" fill="#60708A">Sınıfım</text>
    <text x="62" y="368" fill="#60708A">Kurum</text>
    <text x="62" y="414" fill="#60708A">Ayarlar</text>
  </g>
  <text x="292" y="86" fill="#11243E" font-family="Inter,Segoe UI,sans-serif" font-size="26" font-weight="800">Sınav kağıdı oku</text>
  <text x="292" y="112" fill="#6F7F96" font-family="Inter,Segoe UI,sans-serif" font-size="14">Öğrenci kağıdını kaynak havuzundan oluşturulan cevap çerçevesiyle değerlendirin.</text>
  <rect x="962" y="58" width="168" height="34" rx="17" fill="#E8FFF8" stroke="#9CE4D8"/>
  <circle cx="982" cy="75" r="4" fill="#13A38B"/>
  <text x="994" y="80" fill="#087263" font-family="Inter,Segoe UI,sans-serif" font-size="13" font-weight="750">Kaynakla değerlendirme</text>
  <g font-family="Inter,Segoe UI,sans-serif" font-size="13" font-weight="750">
    <rect x="292" y="138" width="176" height="34" rx="9" fill="#173B64"/>
    <text x="309" y="160" fill="white">Kaynak cevap çerçevesi</text>
    <rect x="478" y="138" width="112" height="34" rx="9" fill="white" stroke="#D8E3EE"/>
    <text x="495" y="160" fill="#50627B">Cevap anahtarı</text>
    <rect x="600" y="138" width="112" height="34" rx="9" fill="white" stroke="#D8E3EE"/>
    <text x="617" y="160" fill="#50627B">Geçmiş kağıtlar</text>
  </g>
  <rect x="292" y="192" width="486" height="474" rx="14" fill="white" stroke="#DBE4EE"/>
  <text x="316" y="226" fill="#13233A" font-family="Inter,Segoe UI,sans-serif" font-size="17" font-weight="800">Çalışma alanı</text>
  <text x="316" y="265" fill="#5D6D84" font-family="Inter,Segoe UI,sans-serif" font-size="12" font-weight="750">Seçili çerçeve</text>
  <rect x="316" y="276" width="420" height="44" rx="11" fill="white" stroke="#CFDBE8"/>
  <text x="332" y="303" fill="#20344F" font-family="Inter,Segoe UI,sans-serif" font-size="14">Anatomi final cevap çerçevesi · Hemşirelik Temel Bakım</text>
  <rect x="316" y="350" width="420" height="172" rx="14" fill="#F8FBFF" stroke="#B8C8DA" stroke-width="1.5" stroke-dasharray="7 7"/>
  <text x="430" y="423" fill="#173250" font-family="Inter,Segoe UI,sans-serif" font-size="17" font-weight="800">Öğrenci kağıdı yükleyin veya fotoğraf çekin</text>
  <text x="410" y="451" fill="#61738D" font-family="Inter,Segoe UI,sans-serif" font-size="14">PDF, JPG veya PNG yükleyerek kaynak tabanlı okumayı başlatın.</text>
  <rect x="316" y="548" width="150" height="40" rx="10" fill="#23456F"/>
  <text x="336" y="573" fill="white" font-family="Inter,Segoe UI,sans-serif" font-size="14" font-weight="800">Seçili kağıdı puanla</text>
  <rect x="478" y="548" width="120" height="40" rx="10" fill="#EEF4FB" stroke="#D4E0EC"/>
  <text x="500" y="573" fill="#254363" font-family="Inter,Segoe UI,sans-serif" font-size="14" font-weight="800">Tüm sınıfı oku</text>
  <rect x="800" y="192" width="330" height="474" rx="14" fill="white" stroke="#DBE4EE"/>
  <text x="824" y="226" fill="#13233A" font-family="Inter,Segoe UI,sans-serif" font-size="17" font-weight="800">Taslak değerlendirme</text>
  <g font-family="Inter,Segoe UI,sans-serif">
    <rect x="824" y="252" width="86" height="72" rx="12" fill="#FBFDFF" stroke="#E0E8F1"/>
    <text x="850" y="287" fill="#12213B" font-size="24" font-weight="800">82</text>
    <text x="848" y="308" fill="#708098" font-size="12">puan</text>
    <rect x="922" y="252" width="86" height="72" rx="12" fill="#FBFDFF" stroke="#E0E8F1"/>
    <text x="956" y="287" fill="#12213B" font-size="24" font-weight="800">4</text>
    <text x="950" y="308" fill="#708098" font-size="12">soru</text>
    <rect x="1020" y="252" width="86" height="72" rx="12" fill="#FBFDFF" stroke="#E0E8F1"/>
    <text x="1042" y="287" fill="#12213B" font-size="24" font-weight="800">91%</text>
    <text x="1045" y="308" fill="#708098" font-size="12">güven</text>
  </g>
  <rect x="824" y="344" width="282" height="278" rx="14" fill="#FBFCFF" stroke="#DFE8F2"/>
  <g font-family="Inter,Segoe UI,sans-serif">
    <rect x="846" y="366" width="238" height="68" rx="9" fill="#F5FFFC"/>
    <path d="M846 375a9 9 0 0 1 9-9h2v68h-11v-59Z" fill="#13A38B"/>
    <text x="870" y="392" fill="#13233A" font-size="14" font-weight="800">Soru 1</text>
    <text x="870" y="414" fill="#51627A" font-size="13">Risk faktörleri doğru, iki alt kavram eksik.</text>
    <rect x="870" y="424" width="190" height="8" rx="4" fill="#E9EEF5"/>
    <rect x="870" y="424" width="148" height="8" rx="4" fill="#13A38B"/>
    <rect x="846" y="450" width="238" height="68" rx="9" fill="#F5FFFC"/>
    <path d="M846 459a9 9 0 0 1 9-9h2v68h-11v-59Z" fill="#13A38B"/>
    <text x="870" y="476" fill="#13233A" font-size="14" font-weight="800">Soru 2</text>
    <text x="870" y="498" fill="#51627A" font-size="13">Düşme riski ve çevresel önlemler güçlü.</text>
    <rect x="870" y="508" width="190" height="8" rx="4" fill="#E9EEF5"/>
    <rect x="870" y="508" width="164" height="8" rx="4" fill="#13A38B"/>
    <rect x="846" y="534" width="238" height="68" rx="9" fill="#F5FFFC"/>
    <path d="M846 543a9 9 0 0 1 9-9h2v68h-11v-59Z" fill="#13A38B"/>
    <text x="870" y="560" fill="#13233A" font-size="14" font-weight="800">Soru 3</text>
    <text x="870" y="582" fill="#51627A" font-size="13">El hijyeni gerekçesi kaynakla uyumlu.</text>
    <rect x="870" y="592" width="190" height="8" rx="4" fill="#E9EEF5"/>
    <rect x="870" y="592" width="160" height="8" rx="4" fill="#13A38B"/>
  </g>
</svg>
