<svg width="1200" height="760" viewBox="0 0 1200 760" fill="none" xmlns="http://www.w3.org/2000/svg">
  <rect width="1200" height="760" fill="#F5F8FC"/>
  <rect x="34" y="34" width="1132" height="692" rx="18" fill="white" stroke="#D9E3EE"/>
  <rect x="34" y="34" width="230" height="692" rx="18" fill="#FBFCFE"/>
  <path d="M264 34v692" stroke="#E4ECF5"/>
  <rect x="58" y="58" width="34" height="34" rx="10" fill="white" stroke="#1F2A36" stroke-width="2"/>
  <text x="105" y="81" fill="#0B1D33" font-family="Inter,Segoe UI,sans-serif" font-size="17" font-weight="800">Papirus AI</text>
  <g font-family="Inter,Segoe UI,sans-serif" font-size="14" font-weight="650">
    <text x="62" y="134" fill="#60708A">Konsol</text>
    <text x="62" y="180" fill="#60708A">Cevap Anahtarı Yükle</text>
    <rect x="52" y="205" width="180" height="38" rx="10" fill="#E8FFF8" stroke="#B7EEE1"/>
    <text x="62" y="229" fill="#047868">Kaynak Yükle</text>
    <text x="62" y="276" fill="#60708A">Sınav Kağıdı Oku</text>
    <text x="62" y="322" fill="#60708A">Sınıfım</text>
    <text x="62" y="368" fill="#60708A">Kurum</text>
    <text x="62" y="414" fill="#60708A">Ayarlar</text>
  </g>
  <text x="292" y="86" fill="#11243E" font-family="Inter,Segoe UI,sans-serif" font-size="26" font-weight="800">Cevap çerçevesi oluştur</text>
  <text x="292" y="112" fill="#6F7F96" font-family="Inter,Segoe UI,sans-serif" font-size="14">Kaynak havuzundan sorulara göre beklenen cevap ve puan kriteri çıkarın.</text>
  <rect x="976" y="58" width="154" height="34" rx="17" fill="#E8FFF8" stroke="#9CE4D8"/>
  <circle cx="996" cy="75" r="4" fill="#13A38B"/>
  <text x="1008" y="80" fill="#087263" font-family="Inter,Segoe UI,sans-serif" font-size="13" font-weight="750">Kaynak havuzu seçili</text>
  <rect x="292" y="146" width="486" height="520" rx="14" fill="white" stroke="#DBE4EE"/>
  <text x="316" y="180" fill="#13233A" font-family="Inter,Segoe UI,sans-serif" font-size="17" font-weight="800">Sınav soruları ve puan planı</text>
  <text x="316" y="219" fill="#5D6D84" font-family="Inter,Segoe UI,sans-serif" font-size="12" font-weight="750">Başlık</text>
  <rect x="316" y="230" width="420" height="44" rx="11" fill="white" stroke="#CFDBE8"/>
  <text x="332" y="257" fill="#20344F" font-family="Inter,Segoe UI,sans-serif" font-size="14">Anatomi final cevap çerçevesi</text>
  <text x="316" y="303" fill="#5D6D84" font-family="Inter,Segoe UI,sans-serif" font-size="12" font-weight="750">Sorular</text>
  <rect x="316" y="314" width="420" height="178" rx="11" fill="white" stroke="#CFDBE8"/>
  <g font-family="Inter,Segoe UI,sans-serif" font-size="14" fill="#20344F">
    <text x="332" y="342">1. Basınç yaralarının oluşum risk faktörlerini açıklayınız. (20 puan)</text>
    <text x="332" y="379">2. Hasta güvenliğinde düşme riskini azaltmaya yönelik girişimleri yazınız. (30 puan)</text>
    <text x="332" y="416">3. El hijyeninin enfeksiyon kontrolündeki önemini açıklayınız. (25 puan)</text>
  </g>
  <rect x="316" y="518" width="192" height="40" rx="10" fill="#23456F"/>
  <text x="337" y="543" fill="white" font-family="Inter,Segoe UI,sans-serif" font-size="14" font-weight="800">Cevap çerçevesi oluştur</text>
  <rect x="800" y="146" width="330" height="520" rx="14" fill="white" stroke="#DBE4EE"/>
  <text x="824" y="180" fill="#13233A" font-family="Inter,Segoe UI,sans-serif" font-size="17" font-weight="800">AI tarafından hazırlanan çerçeve</text>
  <rect x="824" y="208" width="282" height="386" rx="14" fill="#FBFCFF" stroke="#DFE8F2"/>
  <g font-family="Inter,Segoe UI,sans-serif">
    <rect x="846" y="232" width="238" height="80" rx="9" fill="#F5FFFC"/>
    <path d="M846 241a9 9 0 0 1 9-9h2v80h-11v-71Z" fill="#13A38B"/>
    <text x="870" y="258" fill="#13233A" font-size="14" font-weight="800">Soru 1 · 20 puan</text>
    <text x="870" y="282" fill="#51627A" font-size="13">Risk faktörleri, basınç, immobilite, dolaşım ve beslenme başlıklarıyla aranır.</text>
    <rect x="846" y="330" width="238" height="88" rx="9" fill="#F5FFFC"/>
    <path d="M846 339a9 9 0 0 1 9-9h2v88h-11v-79Z" fill="#13A38B"/>
    <text x="870" y="356" fill="#13233A" font-size="14" font-weight="800">Soru 2 · 30 puan</text>
    <text x="870" y="380" fill="#51627A" font-size="13">Risk değerlendirme, çevre düzenleme, eğitim, takip ve kayıt ayrı puanlanır.</text>
    <rect x="846" y="436" width="238" height="88" rx="9" fill="#F5FFFC"/>
    <path d="M846 445a9 9 0 0 1 9-9h2v88h-11v-79Z" fill="#13A38B"/>
    <text x="870" y="462" fill="#13233A" font-size="14" font-weight="800">Soru 3 · 25 puan</text>
    <text x="870" y="486" fill="#51627A" font-size="13">Enfeksiyon zinciri, hijyen endikasyonları ve antisepsi ilkeleriyle uyum aranır.</text>
    <rect x="846" y="546" width="126" height="26" rx="7" fill="#F1F5F9" stroke="#D8E2ED"/>
    <text x="858" y="564" fill="#30455F" font-size="12">Öğretmen kontrolü</text>
    <rect x="982" y="546" width="92" height="26" rx="7" fill="#F1F5F9" stroke="#D8E2ED"/>
    <text x="994" y="564" fill="#30455F" font-size="12">Kaynak kanıtı</text>
  </g>
</svg>
